<?xml version="1.0" encoding="utf-8"?>
<!-- Generator: Adobe Illustrator 16.0.4, SVG Export Plug-In . SVG Version: 6.00 Build 0)  -->
<!DOCTYPE svg PUBLIC "-//W3C//DTD SVG 1.1//EN" "http://www.w3.org/Graphics/SVG/1.1/DTD/svg11.dtd">
<svg version="1.1" id="Layer_1" xmlns="http://www.w3.org/2000/svg" xmlns:xlink="http://www.w3.org/1999/xlink" x="0px" y="0px"
	 width="500px" height="500px" viewBox="0 0 500 500" enable-background="new 0 0 500 500" xml:space="preserve">
<g>
	<g>
		<g>
			<path fill="#EFDE07" d="M429.898,286.718c0,99.521-80.679,180.199-180.197,180.199c-99.52,0-180.197-80.678-180.197-180.199
				c0-99.518,180.197-263.641,180.197-263.641S429.898,187.2,429.898,286.718z"/>
			<path fill-rule="evenodd" clip-rule="evenodd" fill="#FFFFFF" d="M385.076,288.279c-0.003-1.306-0.006-2.613-0.006-3.92
				c-0.857-1.322-1.827-2.369-2.894-3.193c-0.829-0.771-1.884-1.355-3.161-1.754c-2.465-0.934-5.232-1.168-8.134-1.133
				c-2.127,0.027-4.254,0.021-6.381,0.027c-2.842-0.139-5.687-0.281-8.528-0.414c-0.82,0.139-1.639,0.275-2.456,0.417
				c-1.229-0.003-2.459-0.009-3.688-0.009c-0.043-0.047-0.089-0.097-0.132-0.146c-0.237-0.456-0.478-0.914-0.715-1.37
				c1.355-2.313,2.753-4.608,4.128-6.911c0.664-0.971,1.324-1.938,1.987-2.909l0.065-0.562c0.781-1.131,1.556-2.26,2.336-3.388
				c0.105-0.533,0.209-1.066,0.314-1.598c0.092-0.182,0.194-0.357,0.286-0.542c1.406-2.876,4.297-6.09,1.684-9.431
				c0.129-0.646,0.258-1.295,0.383-1.944c-0.945-1.019-1.893-2.037-2.836-3.056l-0.314,0.057l-0.214-0.241
				c-2.985-0.117-5.97-0.237-8.951-0.357l-0.406,0.309l-0.509-0.006c-2.851,5.092-5.626,10.228-8.597,15.249
				c-1.023,1.732-2.533,3.176-3.819,4.753c-0.114,0.553-0.227,1.106-0.338,1.659c-1.646,2.686-3.293,5.375-4.938,8.062l-0.288-0.333
				l0.237,0.37c-2.428,2.097-6.456,2.867-9.935,2.398c-0.267-0.046-0.532-0.086-0.798-0.124c-2.161-0.424-4.025-1.354-5.034-2.778
				c0.048-1.274,0.097-2.548,0.146-3.823c0.721-3.014,1.438-6.023,2.155-9.036c0.12-1.635,0.243-3.269,0.363-4.905
				c0.38-1.97,0.435-3.751,0.151-5.354c-0.003-0.4-0.009-0.804-0.014-1.205c-0.552-1.594-1.106-3.185-1.658-4.777
				c-1.444-0.615-2.885-1.229-4.329-1.843c-0.715-0.41-1.483-0.798-2.327-1.158c-0.78-0.334-1.561-0.669-2.341-1.005
				c-0.544-0.173-1.087-0.348-1.63-0.521c-2.802-1.195-5.606-2.387-8.408-3.582c-1.006-0.243-2.01-0.486-3.013-0.729
				c-0.472-0.254-0.949-0.506-1.421-0.761c-0.397-1.227-0.366-2.67-0.021-4.16c0.052-0.037,0.098-0.076,0.146-0.114
				c-0.04-0.046-0.065-0.09-0.088-0.134c0.037-0.134,0.068-0.268,0.105-0.402c0.02-0.016,0.031-0.033,0.052-0.05
				c0.84-1.078,1.675-2.159,2.513-3.238c-0.194-0.22-0.169-0.413,0.071-0.582c0.003-0.466,0.058-0.877,0.111-1.289
				c1.307-1.63,2.916-2.988,4.669-3.735l0.034-0.083c3.668-0.316,7.336-0.935,10.995-0.882c5.927,0.083,11.848,0.684,17.78,0.92
				c4.656,0.186,7.901-1.523,9.351-4.703c0.261-0.125,0.521-0.254,0.784-0.367c-0.018-0.745-0.032-1.488-0.049-2.231
				c0.037-0.263,0.071-0.526,0.091-0.798c0.069-0.989,0.012-1.899-0.165-2.73c-0.012-0.608-0.026-1.215-0.04-1.823
				c-0.286-0.14-0.572-0.279-0.861-0.419c-1.323-2.097-3.848-3.342-7.455-3.628c-1.064-0.516-2.125-1.033-3.188-1.551
				c-3.313-0.039-6.624-0.079-9.935-0.119c-2.544,0.186-5.089,0.37-7.633,0.556c-0.123-0.154-0.249-0.311-0.372-0.465
				c0.775-2.3,1.275-4.198,2.17-5.846c0.234-0.429,0.472-0.852,0.706-1.279c1.887-2.909,3.774-5.816,5.664-8.724
				c-0.146-0.223-0.126-0.427,0.065-0.613c0.194-0.487,0.377-0.982,0.561-1.479c0.346-0.556,0.688-1.118,1.04-1.669
				c3.071-4.78,4.532-9.523,1.241-14.756c-1.132-0.656-2.262-1.311-3.391-1.965c-0.666,0.031-1.292,0.111-1.896,0.224
				c-0.271-0.104-0.529-0.211-0.814-0.313c-0.807,0.027-1.61,0.054-2.416,0.08c-0.577,0.799-1.161,1.598-1.741,2.396
				c-2.267,1.681-3.991,4.1-5.526,6.812c-0.777,1.376-1.581,2.74-2.37,4.11c-1.415,1.968-2.842,3.929-4.236,5.912
				c-1.556,2.21-2.831,4.639-4.918,8.185c-0.291-0.013-0.58-0.027-0.874-0.042c-1.364-2.793-2.282-4.679-3.196-6.556l-0.359-0.313
				c-0.136-0.176-0.278-0.347-0.42-0.52c-0.449-0.943-0.896-1.889-1.347-2.832l-0.453-0.341c-0.583-1.239-1.168-2.48-1.751-3.723
				c-1.181-1.041-2.361-2.08-3.542-3.12c-1.306-1.761-2.826-3.145-4.489-3.957c-0.769-0.676-1.536-1.352-2.304-2.03
				c-1.356,0.306-2.713,0.612-4.071,0.915l-0.107,0.3l-0.317,0.065c-0.261,0.412-0.524,0.823-0.787,1.235
				c-1.556,0.958-3.132,2.479-4.685,4.674c0.108,1.689,0.213,3.38,0.317,5.071c3.456,5.535,6.911,11.068,10.365,16.603l0.081,0.529
				c0.205,0.281,0.409,0.562,0.615,0.842c0.04,0.111,0.075,0.226,0.115,0.336c0.123,0.11,0.246,0.219,0.369,0.327
				c0.444,0.61,0.891,1.221,1.338,1.831l0.074,0.552c0.434,0.596,0.865,1.189,1.297,1.784c0.515,0.954,1.026,1.908,1.542,2.862
				c-0.034,0.116-0.078,0.234-0.105,0.347c0.201,0.573,0.522,1.204,0.826,1.824l-0.024,0.004l0.025-0.001
				c0.202,0.415,0.392,0.823,0.535,1.212c0.026,0.718-0.032,1.455-0.165,2.202c-1.389,2.79-3.061,5.475-4.896,8.428
				c-1.087,0.855-2.261,1.41-3.43,1.512c-1.079-0.683-2.154-1.366-3.232-2.05c-2.241-2.137-4.482-4.274-6.723-6.409
				c-2.079-1.427-4.158-2.851-6.236-4.277c-0.699-0.393-1.396-0.785-2.093-1.178c-0.663-0.54-1.326-1.081-1.989-1.621
				c-1.133,0.026-2.265,0.053-3.396,0.08c-0.301-0.06-0.604-0.12-0.906-0.179c-0.092,0.069-0.181,0.136-0.274,0.205
				c-0.166,0.004-0.332,0.008-0.498,0.011c-2.555,1.735-5.108,3.468-7.662,5.201c-1.058,0.9-2.113,1.798-3.17,2.696
				c-0.865,0.828-1.726,1.649-2.588,2.474c-0.799,0.593-1.595,1.188-2.393,1.783c-0.931,0.969-1.861,1.941-2.793,2.91
				c-0.896,0.829-1.599,1.25-2.158,1.374c-0.666-0.576-1.284-1.137-1.861-1.683c-0.145-0.523-0.252-1.129-0.335-1.78
				c-0.285,0.055-0.444-0.064-0.472-0.356c-0.512-1.266-1.023-2.533-1.532-3.799c-0.289,0.057-0.443-0.06-0.469-0.354
				c-1.459-0.866-2.416-1.844-2.958-2.908c-0.299-2.287,0.216-4.707,1.498-7.562c4.424-7.013,9.283-13.787,13.135-21.096
				c0.286-0.546,0.489-1.135,0.66-1.743c1.602-2.665,1.722-4.946,0.721-6.933c0.034-0.896,0.083-1.786,0.188-2.646
				c-2.212-1.224-4.422-2.45-6.635-3.674c-0.857,0.573-1.714,1.149-2.569,1.723c-2.586,0.509-5.118,2.108-6.543,4.387
				c-0.504,0.337-1.011,0.678-1.514,1.015c-1.701,2.842-3.402,5.684-5.102,8.524c-0.95,1.942-1.899,3.887-2.85,5.831
				c-1.005,1.172-1.945,1.447-2.93,0.763c-2.523-4.994-5.047-9.989-7.569-14.986c-0.266,0.014-0.432-0.107-0.497-0.364
				c-1.272-1.631-2.718-3.155-3.788-4.91c-4.278-7.013-8.714-7.736-15.098-2.319c-0.381,0.709-0.763,1.418-1.146,2.127
				c0.003,0.006,0.006,0.013,0.009,0.02c-0.389,0.473-1.006,0.761-1.518,1.135c0.017,1.178,0.034,2.355,0.051,3.534
				c0.868,1.498,1.737,2.999,2.604,4.497c0.36,0.243,0.512,0.58,0.453,1.012c3.646,5.847,7.336,11.67,10.857,17.594
				c0.234,0.395-0.815,1.55-1.267,2.35c-1,0.071-2.001,0.146-3,0.219c-0.582-0.042-1.144-0.084-1.705-0.125l-0.452,0.151
				c-0.512,0.069-1.026,0.155-1.538,0.243c-1.268,0.094-2.534,0.186-3.802,0.28c-0.872,0.026-1.745,0.051-2.619,0.079
				c-1.698,0.019-3.395,0.037-5.093,0.056c-0.376,0.242-0.749,0.483-1.124,0.723c-3.118,0.592-5.656,2.044-6.92,4.463
				c-0.657,0.425-1.318,0.849-1.977,1.275c-0.084,1.698-0.17,3.398-0.255,5.098c0.776,1.049,1.6,1.936,2.473,2.682
				c0.173,0.449,0.359,0.906,0.573,1.378c1.515,0.761,3.027,1.52,4.543,2.279c6.521-0.2,13.042-0.4,19.562-0.599l0.499,0.196
				c1.37-0.143,2.739-0.283,4.11-0.426l0.513,0.211c1.352-0.137,2.702-0.274,4.051-0.412c0.4,0.047,0.808,0.054,1.195,0.154
				c0.171,0.043,0.299,0.267,0.446,0.41c0.758,0.145,1.69,0.17,2.539,0.25c1.83,1.106,3.331,2.71,4.624,4.709
				c0.599,1.053,1.202,2.147,1.803,3.271c0.183,0.389,0.366,0.783,0.54,1.19c1.158,2.673,1.207,4.261,0.262,5.107
				c-0.65,0.246-1.302,0.491-1.947,0.732c-0.665,0.082-1.448,0.092-2.357,0.035c-0.797,0.263-1.597,0.523-2.396,0.783
				c-2.293,1.187-4.589,2.372-6.881,3.557c-3.471,1.305-6.879,2.587-10.285,3.866c-0.372,0.675-0.743,1.35-1.116,2.026
				c-0.32,0.164-0.641,0.329-0.961,0.496c0.004,0.407,0.009,0.817,0.012,1.226c-0.13,0.232-0.257,0.463-0.386,0.698
				c0.146,2.122,0.292,4.241,0.44,6.361c0.012,1.492,0.023,2.986,0.034,4.479c0.715,3.006,1.428,6.014,2.145,9.021
				c0.065,1.687,0.13,3.376,0.197,5.063c-2.251,3.229-8.688,3.928-13.277,1.93c-0.778-0.434-1.518-0.983-2.239-1.651l0.1-0.127
				l-0.116,0.109c-0.21-0.194-0.418-0.378-0.625-0.594c-3.68-6.635-7.357-13.271-11.035-19.904
				c-0.326-0.802-0.652-1.604-0.975-2.407c-0.57-0.952-1.139-1.902-1.709-2.854l-0.012-0.421c-0.352-0.104-0.703-0.21-1.055-0.313
				c-2.433-4.32-5.944-4.82-10.086-3.006c-0.36-0.107-0.72-0.214-1.081-0.322c-1.126,0.974-2.251,1.947-3.378,2.919
				c-0.519,1.219-1.038,2.44-1.555,3.659c0.056,1.242,0.113,2.486,0.17,3.729c0.729,1.306,1.458,2.613,2.187,3.918
				c0.314,0.215,0.404,0.502,0.271,0.861c0.922,1.795,1.847,3.591,2.767,5.387c1.021,2.296,2.042,4.591,3.062,6.885
				c1.415,2.7,1.49,4.01-0.426,4.586c-0.329,0.016-0.673,0.025-1.054,0.017c-6.544-0.111-13.097,0.088-19.641,0.273
				c-1.065,0.028-2.027,0.11-2.92,0.222c-0.797,0-1.595-0.002-2.393,0c-1.547,0.809-3.094,1.618-4.64,2.427
				c-0.446,0.835-0.892,1.67-1.338,2.505c-0.049,2.037-0.099,4.075-0.149,6.115c0.463,0.834,0.926,1.672,1.388,2.51l0.137,0.551
				c0.404,0.17,0.806,0.341,1.211,0.51c0.005,0.103,0.008,0.209,0.02,0.311c1.026,0.576,2.051,1.154,3.078,1.733
				c0.587,0,1.173,0.003,1.759,0.003c0.395,0.167,0.789,0.333,1.184,0.499c7.644,0.037,15.287,0.073,22.931,0.11
				c0.809,0.463,1.615,0.926,2.425,1.391c-0.556,1.14-1.112,2.278-1.67,3.419c-0.057,0.085-0.113,0.17-0.168,0.255
				c-0.009,0.046-0.015,0.09-0.021,0.136c-0.619,1.265-1.238,2.533-1.857,3.798c-0.269,0.37-0.539,0.737-0.809,1.106
				c-0.06,0.298-0.12,0.595-0.18,0.891c-0.366,0.676-0.735,1.356-1.102,2.032c-0.837,1.479-1.675,2.954-2.514,4.431
				c0.011,0.217,0.02,0.437,0.03,0.654c-0.476,0.725-0.954,1.451-1.428,2.174c-0.51,3.329,0.14,6.151,1.911,8.487
				c0.01,0.198,0.019,0.397,0.027,0.595c0.406,0.264,0.811,0.528,1.215,0.792c0.536,0.507,1.114,0.996,1.778,1.446
				c0.097-0.033,0.194-0.067,0.292-0.101c0.329,0.215,0.66,0.431,0.99,0.648c3.554-0.387,6.251-1.688,8.341-3.842
				c0.778-0.267,1.556-0.533,2.333-0.8c0.903-1.833,1.807-3.664,2.71-5.495c0.489-0.977,0.98-1.955,1.472-2.934
				c1.284-2.439,2.567-4.88,3.851-7.321c1.106-1.594,2.212-3.185,3.317-4.777c1.671-2.346,3-6.254,5.083-6.707
				c4.081-0.888,8.626-0.096,12.846,0.708c0.349,0.065,0.331,2.077,0.303,4.122c-0.037,0.058-0.069,0.11-0.109,0.17
				c-0.174,0.822-0.352,1.643-0.529,2.465c-0.063,1.238-0.125,2.476-0.188,3.714c-0.329,1.425-0.658,2.849-0.989,4.271
				c-0.306,2.492-0.612,4.985-0.918,7.477c0.003,0.48,0.004,0.959,0.006,1.439c0.362,1.021,0.721,2.038,1.083,3.059
				c-0.028,0.558-0.057,1.117-0.085,1.673c0.283,0.163,0.566,0.324,0.849,0.487c0.07,0.197,0.141,0.397,0.211,0.596
				c1.253,0.891,2.507,1.783,3.759,2.674c1.256,0.417,2.515,0.837,3.77,1.252c0.131,0.044,0.265,0.087,0.395,0.13
				c0.699,0.4,1.396,0.802,2.094,1.201c2.959,0.895,5.918,1.791,8.877,2.686c1.07,0.57,2.141,1.14,3.213,1.708
				c1.053,1.281,1.862,3.587,1.469,4.758c-0.577,1.722-1.096,3.157-1.615,4.375c-1.462,2.385-3.631,4.45-6.061,5.331l-0.16-0.394
				l0.1,0.413c-7.88-0.167-15.764-0.334-23.643-0.5c-0.857-0.123-1.715-0.246-2.571-0.369c-1.109,0.013-2.217,0.025-3.327,0.037
				l-0.372-0.198c-0.366,0.343-0.732,0.688-1.098,1.03c-0.618,0.103-1.176,0.283-1.608,0.609c-2.349,1.782-5.417,4.278-6.143,6.668
				c-0.148,0.139-0.297,0.279-0.449,0.42c0.274,1.463,0.549,2.925,0.823,4.391c0.795,1.061,1.585,2.121,2.378,3.182
				c1.104,0.579,2.205,1.153,3.308,1.731c1.495,0.028,2.993,0.056,4.487,0.084c0.346-0.166,0.639-0.101,0.881,0.195
				c2.017,0.107,4.032,0.214,6.049,0.32c2.497,0.273,4.993,0.546,7.489,0.819c4.223,0.188,4.852,1.242,2.499,5.575
				c-3.636,6.698-7.582,13.23-11.396,19.833c-0.08,1.743-0.159,3.485-0.239,5.229c0.498,0.805,0.994,1.61,1.491,2.418
				c1.735,1.066,3.472,2.136,5.208,3.204c0.958,0.022,1.911,0.043,2.869,0.064l0.546,0.16c0.73-0.55,1.461-1.1,2.193-1.65
				c0.618-0.358,1.218-0.808,1.795-1.349c0.766-0.576,1.535-1.154,2.302-1.73c3.879-6.587,7.757-13.174,11.634-19.762
				c0.957-0.548,1.91-1.1,2.866-1.649c0.602,1.233,1.204,2.463,1.807,3.693c0.452,0.363,0.905,0.725,1.358,1.087
				c0.549,1.258,1.098,2.517,1.645,3.771c0.432,0.385,0.862,0.767,1.294,1.148c0.343,0.659,0.689,1.316,1.035,1.971
				c0.685,0.961,1.368,1.919,2.053,2.875c0.601,1.208,1.201,2.413,1.801,3.621c3.788,3.056,7.874,3.552,12.264,1.434
				c0.058-0.287,0.115-0.575,0.172-0.862c3.555-2.676,4.909-6.265,2.154-10.761c0.052-0.256,0.102-0.513,0.156-0.769
				c-1.131-1.701-2.259-3.405-3.386-5.106c-0.6-0.916-1.194-1.833-1.795-2.749c-1.464-2.339-2.925-4.676-4.389-7.013
				c-0.817-1.757-1.638-3.514-2.458-5.271c-0.991-2.191-3.033-4.723-3.302-6.68c-0.01-0.268-0.008-0.529,0-0.789
				c0.018-0.103,0.035-0.204,0.064-0.3c1.287-3.975,4.259-7.504,7.077-10.745c0.348-0.4,4.008,2.078,6.133,3.223
				c1.949,1.834,3.896,3.668,5.846,5.504c1.999,1.518,4,3.034,5.998,4.554c0.415,0.24,0.832,0.479,1.247,0.72
				c0.654,0.124,1.31,0.25,1.965,0.374c0.72,0.25,1.435,0.385,2.145,0.404c0.65,0.125,1.303,0.248,1.951,0.369
				c1.401-0.633,2.802-1.268,4.203-1.901c0.993-0.876,1.986-1.752,2.979-2.629c2.582-2.229,5.064-4.608,7.7-6.758
				c0.862-0.658,1.724-1.316,2.585-1.97c0.288-0.206,0.574-0.416,0.869-0.612c1.317-0.879,4.944-0.435,5.981,0.748
				c2.088,2.383,3.537,4.188,4.409,5.801c1.193,3.612,0.197,7.288-2.736,12.08c-1.458,2.384-2.932,4.757-4.401,7.137
				c-2.031,3.131-4.081,6.248-6.055,9.415c-1.109,1.778-2.812,3.885-2.597,5.641c0.032,0.269,0.069,0.547,0.106,0.833
				c-0.145,0.915-0.123,1.77,0.195,2.385c0.092,0.18,0.194,0.367,0.302,0.555c0.502,2.347,1.313,4.571,2.761,5.481
				c2.136,1.348,6.689,0.022,9.581-1.371c2.236-1.079,3.643-4.013,5.243-6.243c3.134-4.364,6.147-8.817,9.718-13.968
				c4.589,8.053,8.448,15.015,12.496,21.863c3.19,5.393,7.719,6.975,12.133,4.533c1.444-0.798,2.496-1.841,3.165-3.066
				c1.812-2.562,1.642-5.825-0.488-9.832c-2.977-5.592-5.864-11.229-8.791-16.849c-0.798-0.955-1.596-1.909-2.394-2.864
				c-0.666-2.311,0.812-3.125,4.18-3.169c5.44-0.07,10.896-0.227,16.305-0.748c2.573-0.019,5.249-0.177,6.532-2.873
				c1.307-1.477,1.976-3.489,1.744-6.001c-0.443-4.817-3.019-8.045-8.914-7.645c-8.671,0.586-17.391,0.787-26.076,0.57
				c-0.26-0.007-0.531-0.037-0.803-0.071c-0.243-0.127-0.486-0.258-0.729-0.383c-0.552-0.021-1.058-0.078-1.532-0.158
				c-1.701-0.603-3.331-1.602-4.337-2.787c-0.689-0.809-1.272-1.709-1.815-2.67c-1.032-2.44-1.744-5.212-3.508-7.327
				c-0.129-0.265-0.255-0.528-0.389-0.798c7.559-2.995,14.558-5.829,21.607-8.537c4.031-1.548,5.792-4.115,5.729-7.928
				c0.294-1.631,0.309-3.466,0.051-5.519c-0.103-0.844-0.206-1.687-0.309-2.53c-0.651-2.944-1.307-5.888-1.958-8.834
				c-0.12-0.978-0.243-1.954-0.366-2.931c-0.043-1.185-0.086-2.368-0.129-3.555c0.381-0.422,0.838-0.795,1.35-1.119
				c9.686-3.001,14.237-1.032,18.766,7.367c3.525,6.544,6.931,13.164,10.689,19.573c1.066,1.817,3.137,4.146,4.849,4.232
				c0.277,0.016,0.569,0.021,0.872,0.021c1.804,0.413,3.763,0.143,5.781-0.85c4.8-2.358,5.812-6.744,2.772-12.431
				c-1.083-2.028-2.175-4.052-3.296-6.114c-1.878-3.812-4.037-7.711-6.232-12.066c0.804-0.154,1.544-0.313,2.244-0.468
				c8.68,0.019,16.158,0.093,23.623-0.02c4.617-0.07,8.002-2.215,9.18-5.373C384.404,289.445,384.756,288.892,385.076,288.279z
				 M283.365,320.672c-1.387,0.192-2.602,0.065-3.692-0.425c-0.921-0.556-1.793-1.319-2.262-2.031
				c-0.773-1.172-1.522-2.363-2.27-3.554c-2.426-5.126-5.646-9.883-8.082-15.011c-0.482-1.014,1.049-4.318,1.751-4.352
				c7.151-0.317,14.324-0.258,21.49-0.229c3.014,0.472,4.966,1.407,6.227,3.174c0.009,1.69,0.034,3.381,0.28,5.034
				c1.409,9.434,1.635,11.225-3.726,13.786C289.897,318.433,286.664,319.678,283.365,320.672z M240.235,335.754
				c-5.382-4.398-5.614-6.65-2.047-13.284c3.162-4.639,5.637-9.757,8.81-14.393c0.632-0.927,4.257-1.269,4.638-0.68
				c4.119,6.402,7.883,13.035,11.692,19.632c0.231,0.402,0.362,0.864,0.475,1.336c-0.836,2.101-1.379,4.856-2.933,5.694
				c-1.134,0.607-2.151,1.481-3.134,2.426C249.444,343.104,249.25,342.64,240.235,335.754z M221.085,319.584
				c-0.024,0.02-0.049,0.056-0.075,0.059c-2.318,0.259-5.253,1.388-6.863,0.398c-1.898-1.165-4.308-1.632-6.565-2.27
				c-1.58-0.72-3.147-1.467-4.68-2.269c-0.04-0.021-0.077-0.058-0.115-0.08c-0.51-0.482-0.943-1.06-1.282-1.756
				c-0.23-0.553-0.389-1.15-0.444-1.693c0.263-1.038,0.332-1.233,0.352-1.427c1.427-13.754,1.638-15.686,11.939-15.953
				c5.202-0.008,10.593,0.067,16.496,0.141c3.214,0.476,4.09,2.401,2.186,5.737c-3.449,6.05-6.947,12.07-10.422,18.103
				c-0.094,0.163-0.176,0.384-0.26,0.585C221.266,319.301,221.177,319.443,221.085,319.584z M209.501,254.248
				c2.788-0.916,5.887-1.556,8.534-2.179c1.401-0.332,4.282,3.764,5.821,6.236c0.077,0.122,0.147,0.246,0.223,0.366
				c3.21,5.478,6.44,11.248,10.133,17.754c-0.058,0.708-0.117,1.417-0.175,2.126c-0.173,0-0.345,0-0.516,0
				c-1.285-0.123-2.569-0.291-3.855-0.299c-5.512-0.042-11.044,0.251-16.533-0.116c-3.159-0.211-8.462-0.753-8.965-2.354
				c-1.73-5.506-4.148-12.928-1.786-16.988c0.556-0.955,1.419-1.759,2.479-2.449C206.388,255.611,207.935,254.904,209.501,254.248z
				 M242.674,234.976c1.324-0.798,2.854-1.635,4.61-2.556c0.672-0.352,1.295-0.593,1.884-0.754c0.194-0.019,0.391-0.043,0.584-0.043
				c2.221-0.001,4.531,1.358,6.773,3.229c1.575,1.786,3.065,3.81,4.993,4.864c0.475,0.505,0.939,1.001,1.391,1.481
				c0.252,1.012,0.322,2.538,0.222,3.971c-0.568,1.617-1.453,3.449-2.149,4.766c-2.631,4.981-5.532,9.822-8.396,14.68
				c-3.285,3.903-4.996,1.089-10.704-8.325c-0.329-0.545-0.678-1.082-1.001-1.632c-3.716-6.379-5.457-10.182-4.628-13.252
				C238.164,239.304,240.371,236.886,242.674,234.976z M272.615,263.412c4.228-7.352,6.86-10.923,10.529-11.466
				c2.872-0.103,6.447,1.719,11.996,5.205c2.013,1.267,2.931,2.664,3.225,4.141c-0.165,1.58-0.357,3.161-0.568,4.737
				c-0.85,2.653-2.139,5.378-1.724,7.928c0.177,1.09-3.854,3.591-6.247,4.179c-3.015,0.737-6.347,0.179-9.542,0.179
				c-14.519-0.014-15.865-0.015-10.378-10.322C270.811,266.467,271.725,264.944,272.615,263.412z"/>
		</g>
	</g>
</g>
</svg>
