<?xml version="1.0" encoding="utf-8"?>
<!-- Generator: Adobe Illustrator 16.0.4, SVG Export Plug-In . SVG Version: 6.00 Build 0)  -->
<!DOCTYPE svg PUBLIC "-//W3C//DTD SVG 1.1//EN" "http://www.w3.org/Graphics/SVG/1.1/DTD/svg11.dtd">
<svg version="1.1" id="Layer_1" xmlns="http://www.w3.org/2000/svg" xmlns:xlink="http://www.w3.org/1999/xlink" x="0px" y="0px"
	 width="200px" height="120px" viewBox="0 0 200 120" enable-background="new 0 0 200 120" xml:space="preserve">
<g>
	<path fill="#82BC02" d="M108.801,80L96.8,92l-5.6-5.6l-4,4l9.6,9.6l16-16L108.801,80z"/>
	<path fill="#82BC02" d="M111.666,20H88.332c-0.92,0-1.666,0.746-1.666,1.667v16.666c0,0.921,0.746,1.667,1.666,1.667h23.334
		c0.92,0,1.668-0.746,1.668-1.667V21.667C113.334,20.746,112.586,20,111.666,20z M108.332,23.333L100,30l-8.334-6.667H108.332z
		 M110,36.667H90V25l10,8.333L110,25V36.667z"/>
</g>
</svg>
