<?xml version="1.0" encoding="utf-8"?>
<!-- Generator: Adobe Illustrator 16.0.4, SVG Export Plug-In . SVG Version: 6.00 Build 0)  -->
<!DOCTYPE svg PUBLIC "-//W3C//DTD SVG 1.1//EN" "http://www.w3.org/Graphics/SVG/1.1/DTD/svg11.dtd">
<svg version="1.1" id="Layer_1" xmlns="http://www.w3.org/2000/svg" xmlns:xlink="http://www.w3.org/1999/xlink" x="0px" y="0px"
	 width="200px" height="60px" viewBox="0 0 200 60" enable-background="new 0 0 200 60" xml:space="preserve">
<path fill="#E55505" d="M107.688,20.498h-15c-1.381,0-2.5,1.119-2.5,2.5v0.833h20v-0.833
	C110.188,21.617,109.067,20.498,107.688,20.498z M103.32,18.831l0.368,2.631h-7.003l0.368-2.631H103.32z M103.521,17.165h-6.666
	c-0.688,0-1.328,0.557-1.423,1.237l-0.488,3.488c-0.096,0.681,0.389,1.237,1.077,1.237h8.334c0.688,0,1.172-0.557,1.077-1.237
	l-0.488-3.488C104.848,17.722,104.208,17.165,103.521,17.165L103.521,17.165z M108.104,25.498H92.271
	c-0.916,0-1.598,0.747-1.516,1.66l1.364,15.014c0.083,0.912,0.901,1.659,1.818,1.659h12.5c0.917,0,1.734-0.747,1.817-1.659
	l1.365-15.014C109.703,26.245,109.021,25.498,108.104,25.498z M96.854,40.499h-2.5l-0.834-11.668h3.334V40.499z M101.854,40.499
	h-3.334V28.831h3.334V40.499z M106.021,40.499h-2.5V28.831h3.334L106.021,40.499z"/>
</svg>
